HIERARCHY
ROOT hip
{
	OFFSET 0.000000 0.000000 0.000000 
	CHANNELS 6 Xposition Yposition Zposition Xrotation Zrotation Yrotation
	JOINT abdomen
	{
		OFFSET 0.000000 3.402643 0.000000 
		CHANNELS 3 Xrotation Zrotation Yrotation
		JOINT chest
		{
			OFFSET 0.000000 8.438565 -0.680529 
			CHANNELS 3 Xrotation Zrotation Yrotation
			JOINT neck
			{
				OFFSET 0.000000 10.207942 -0.272212 
				CHANNELS 3 Xrotation Zrotation Yrotation
				JOINT head
				{
					OFFSET 0.000000 3.130431 0.000000 
					CHANNELS 3 Xrotation Zrotation Yrotation
					End Site
					{
						OFFSET 0.000000 3.130435 0.000000 
					}
				}
			}
			JOINT lCollar
			{
				OFFSET 3.470700 6.669187 -0.816635 
				CHANNELS 3 Yrotation Zrotation Xrotation
				JOINT lShldr
				{
					OFFSET 3.198488 0.000000 0.000000 
					CHANNELS 3 Zrotation Yrotation Xrotation
					JOINT lForeArm
					{
						OFFSET 10.139888 0.000000 0.000000 
						CHANNELS 3 Yrotation Zrotation Xrotation
						JOINT lHand
						{
							OFFSET 8.370511 0.000000 0.000000 
							CHANNELS 3 Zrotation Yrotation Xrotation
							End Site
							{
								OFFSET 4.083176 0.000000 0.000000 
							}
						}
					}
				}
			}
			JOINT rCollar
			{
				OFFSET -3.470700 6.669187 -0.816635 
				CHANNELS 3 Yrotation Zrotation Xrotation
				JOINT rShldr
				{
					OFFSET -3.198488 0.000000 0.000000 
					CHANNELS 3 Zrotation Yrotation Xrotation
					JOINT rForeArm
					{
						OFFSET -10.139888 0.000000 0.000000 
						CHANNELS 3 Yrotation Zrotation Xrotation
						JOINT rHand
						{
							OFFSET -8.370511 0.000000 0.000000 
							CHANNELS 3 Zrotation Yrotation Xrotation
							End Site
							{
								OFFSET -4.083176 0.000000 0.000000 
							}
						}
					}
				}
			}
		}
	}
	JOINT lThigh
	{
		OFFSET 5.308129 -1.633274 1.361059 
		CHANNELS 3 Xrotation Zrotation Yrotation
		JOINT lShin
		{
			OFFSET -2.041588 -20.007561 0.000000 
			CHANNELS 3 Xrotation Zrotation Yrotation
			JOINT lFoot
			{
				OFFSET 0.000000 -19.190928 -1.224953 
				CHANNELS 3 Xrotation Yrotation Zrotation
				End Site
				{
					OFFSET 0.000000 -2.449906 4.627600 
				}
			}
		}
	}
	JOINT rThigh
	{
		OFFSET -5.308129 -1.633274 1.361059 
		CHANNELS 3 Xrotation Zrotation Yrotation
		JOINT rShin
		{
			OFFSET 2.041588 -20.007561 0.000000 
			CHANNELS 3 Xrotation Zrotation Yrotation
			JOINT rFoot
			{
				OFFSET 0.000000 -19.190928 -1.224953 
				CHANNELS 3 Xrotation Yrotation Zrotation
				End Site
				{
					OFFSET 0.000000 -2.449906 4.627600 
				}
			}
		}
	}
}
MOTION
Frames: 10
Frame Time: 0.033333
0.527680 11.545030 0.527680 81.933594 0.000000 -51.992184 0.000000 0.000000 0.000000 -0.574262 -0.125724 7.978517 5.156250 -0.009766 0.000000 -50.754707 11.588631 28.092907 1.992188 -2.001953 0.000341 19.868372 -29.203318 -29.373314 -89.156166 1.612575 21.151474 37.049976 -41.714008 -4.579618 -2.001953 1.992188 0.000000 79.082901 74.294533 4.822936 58.737591 -1.398699 20.166821 -21.496582 51.235935 18.759499 -55.264175 -10.906983 4.116096 48.871689 -0.361562 -3.604983 23.431145 -11.722228 -1.186391 -5.453867 16.573845 -14.635166 32.173649 1.165344 2.662767 -34.794422 -16.564613 -0.532309 
0.527680 11.490873 0.527680 81.933594 0.000000 -51.992184 0.000000 0.000000 0.000000 -0.288071 -0.174080 7.978538 5.156250 -0.009766 0.000000 -49.819305 10.952692 28.355659 1.992188 -2.001953 0.000341 20.014633 -28.930189 -29.760773 -89.615250 1.605067 21.167368 36.783379 -41.438778 -4.472560 -2.001953 1.992188 0.000000 78.881851 74.582108 4.610364 58.737591 -1.398699 20.166821 -21.496582 51.235935 18.759499 -55.269318 -10.946881 4.124159 48.745594 -0.351754 -3.575270 23.552715 -11.716705 -1.193231 -5.600184 16.505768 -14.686281 32.359131 1.155531 2.679394 -34.857014 -16.583250 -0.512457 
0.527680 11.425923 0.527680 81.933594 0.000000 -51.992184 0.000000 0.000000 0.000000 0.046949 -0.222435 7.978569 5.156250 -0.009766 0.000000 -48.743404 10.190327 28.707251 1.992188 -2.001953 0.000341 20.211561 -28.609465 -30.251120 -90.165909 1.599845 21.185385 36.459270 -41.117897 -4.339851 -2.001953 1.992188 0.000000 78.623177 74.936501 4.346874 58.737591 -1.398699 20.166821 -21.496582 51.235935 18.759499 -55.255398 -10.975471 4.134979 48.569515 -0.371289 -3.584791 23.731220 -11.686007 -1.129873 -5.759486 16.451658 -14.738873 32.584175 1.140503 2.686886 -34.894028 -16.580610 -0.482539 
0.527680 11.360979 0.527680 81.933594 0.000000 -51.992184 0.000000 0.000000 0.000000 0.381922 -0.270784 7.988329 5.156250 -0.009766 0.000000 -47.665253 9.426000 29.043427 1.992188 -2.001953 0.000341 20.398582 -28.291027 -30.728477 -90.717087 1.604075 21.209562 36.135715 -40.789413 -4.204957 -2.001953 1.992188 0.000000 78.351891 75.290558 4.064101 58.737591 -1.398699 20.166821 -21.496582 51.235935 18.759499 -55.260498 -11.015366 4.143034 48.403545 -0.390822 -3.585060 23.921310 -11.643012 -1.094876 -5.916921 16.385372 -14.781890 32.809113 1.140520 2.688731 -34.941357 -16.575285 -0.460904 
0.527680 11.285170 0.527680 81.933594 0.000000 -51.992184 0.000000 0.000000 0.000000 0.754694 -0.328817 7.978607 5.156250 -0.009766 0.000000 -46.509663 8.588203 29.395344 1.992188 -2.001953 0.000341 20.623346 -27.930698 -31.287607 -91.311737 1.599983 21.228350 35.801346 -40.432468 -4.085820 -2.001953 1.992188 0.000000 78.043221 75.672401 3.731811 58.737591 -1.398699 20.166821 -21.496582 51.235935 18.759499 -55.251762 -11.074499 4.176620 48.208450 -0.374543 -3.568657 24.097237 -11.622841 -1.073845 -6.102193 16.316711 -14.850144 33.052719 1.121114 2.725059 -35.007580 -16.616892 -0.447176 
0.527680 11.209361 0.527680 81.933594 0.000000 -51.992184 0.000000 0.000000 0.000000 1.137186 -0.386844 7.978662 5.156250 -0.009766 0.000000 -45.371838 7.732126 29.730764 1.992188 -2.001953 0.000341 20.821936 -27.569199 -31.828245 -91.905144 1.595850 21.250900 35.448719 -40.081654 -3.946862 -2.001953 1.992188 0.000000 77.709099 76.063347 3.379554 58.737591 -1.398699 20.166821 -21.496582 51.235935 18.759499 -55.227242 -11.102724 4.194752 48.022263 -0.390854 -3.585887 24.282566 -11.586705 -1.039707 -6.279018 16.249249 -14.916129 33.297020 1.101516 2.741851 -35.049038 -16.608706 -0.390990 
0.527680 11.133624 0.527680 81.933594 0.000000 -51.992184 0.000000 0.000000 0.000000 1.519678 -0.444870 7.978729 5.156250 -0.009766 0.000000 -44.212284 6.857749 30.051716 1.992188 -2.001953 0.000341 21.049555 -27.207245 -32.403507 -92.500893 1.600921 21.267622 35.110073 -39.711918 -3.837859 -2.001953 1.992188 0.000000 77.355606 76.454300 3.017534 58.737591 -1.398699 20.166821 -21.496582 51.235935 18.759499 -55.230907 -11.152476 4.207188 47.827797 -0.394002 -3.558404 24.465624 -11.565676 -1.036745 -6.459189 16.155352 -14.965021 33.541389 1.091723 2.751610 -35.103214 -16.620735 -0.361100 
0.527680 11.057888 0.527680 81.933594 0.000000 -51.992184 0.000000 0.000000 0.000000 1.893844 -0.493238 7.969040 5.156250 -0.009766 0.000000 -43.065720 5.974033 30.348972 1.992188 -2.001953 0.000341 21.255730 -26.840816 -32.968552 -93.092239 1.597015 21.278370 34.785728 -39.348854 -3.746725 -2.001953 1.992188 0.000000 77.014389 76.853760 2.663982 58.737591 -1.398699 20.166821 -21.496582 51.235935 18.759499 -55.218826 -11.171311 4.204179 47.632820 -0.429821 -3.554236 24.651209 -11.548823 -1.005799 -6.645580 16.078211 -15.032639 33.785389 1.081933 2.771039 -35.153976 -16.635231 -0.357366 
0.527680 10.992937 0.527680 81.933594 0.000000 -51.992184 0.000000 0.000000 0.000000 2.266579 -0.551265 7.969036 5.156250 -0.009766 0.000000 -41.961720 5.115203 30.604387 1.992188 -2.001953 0.000341 21.463175 -26.494650 -33.510601 -93.645844 1.599743 21.299189 34.468857 -38.998257 -3.660748 -2.001953 1.992188 0.000000 76.637230 77.224602 2.273368 58.737591 -1.398699 20.166821 -21.496582 51.235935 18.759499 -55.210514 -11.230555 4.228317 47.438766 -0.423064 -3.512890 24.834745 -11.541955 -0.956923 -6.803968 16.011301 -15.074567 34.010784 1.077586 2.761890 -35.200375 -16.639313 -0.322603 
0.527680 10.927987 0.527680 81.933594 0.000000 -51.992184 0.000000 0.000000 0.000000 2.630903 -0.599622 7.969128 5.156250 -0.009766 0.000000 -40.857834 4.262413 30.837358 1.992188 -2.001953 0.000341 21.675524 -26.151539 -34.065525 -94.198051 1.592504 21.325825 34.152721 -38.647812 -3.585827 -2.001953 1.992188 0.000000 76.237335 77.594833 1.863143 58.737591 -1.398699 20.166821 -21.496582 51.235935 18.759499 -55.175919 -11.258540 4.244321 47.252861 -0.449308 -3.524398 25.026405 -11.504263 -0.942917 -6.980467 15.944669 -15.129986 34.245148 1.062328 2.779206 -35.257835 -16.645756 -0.279362 
